<svg width="23" height="23" viewBox="0 0 23 23" fill="none" xmlns="http://www.w3.org/2000/svg">
<path d="M17.8699 7.80334C17.8699 5.99897 17.159 4.26852 15.8934 2.99265C14.628 1.71677 12.9116 1 11.122 1C9.33228 1 7.61591 1.71677 6.35042 2.99265C5.08493 4.26852 4.37398 5.99897 4.37398 7.80334C4.37398 15.7406 1 18.0083 1 18.0083H21.2439C21.2439 18.0083 17.8699 15.7406 17.8699 7.80334Z" stroke="black" stroke-width="1.63129" stroke-linecap="round" stroke-linejoin="round"/>
<path d="M13.0676 20.9407C12.8699 21.2629 12.5861 21.5303 12.2446 21.7161C11.9031 21.9021 11.516 22 11.1219 22C10.7279 22 10.3407 21.9021 9.9993 21.7161C9.65785 21.5303 9.37398 21.2629 9.17627 20.9407" stroke="black" stroke-width="1.63129" stroke-linecap="round" stroke-linejoin="round"/>
</svg>
